<?xml version="1.0" encoding="UTF-8" standalone="no"?>
<!-- Created with Inkscape (http://www.inkscape.org/) -->

<svg
   width="102.00001mm"
   height="104mm"
   viewBox="0 0 102.00001 104"
   version="1.1"
   id="svg5"
   inkscape:version="1.1 (c68e22c387, 2021-05-23)"
   sodipodi:docname="logo.svg"
   xmlns:inkscape="http://www.inkscape.org/namespaces/inkscape"
   xmlns:sodipodi="http://sodipodi.sourceforge.net/DTD/sodipodi-0.dtd"
   xmlns="http://www.w3.org/2000/svg"
   xmlns:svg="http://www.w3.org/2000/svg">
  <sodipodi:namedview
     id="namedview7"
     pagecolor="#505050"
     bordercolor="#ffffff"
     borderopacity="1"
     inkscape:pageshadow="0"
     inkscape:pageopacity="0"
     inkscape:pagecheckerboard="1"
     inkscape:document-units="mm"
     showgrid="false"
     inkscape:zoom="0.73406285"
     inkscape:cx="-51.085544"
     inkscape:cy="472.03043"
     inkscape:window-width="1920"
     inkscape:window-height="1009"
     inkscape:window-x="-8"
     inkscape:window-y="1192"
     inkscape:window-maximized="1"
     inkscape:current-layer="layer1"
     width="209mm"
     height="296mm" />
  <defs
     id="defs2" />
  <g
     inkscape:label="Layer 1"
     inkscape:groupmode="layer"
     id="layer1">
    <path
       style="fill:#000000;fill-opacity:1;fill-rule:nonzero;stroke:none;stroke-width:0.264583"
       id="path106"
       d="m 9.7776533,2.897127 c -0.188847,8.144357 -1.308524,16.234702 -2.312514,24.308622 -1.22324,10.51537 -2.736612,20.99318 -4.278098,31.46564 -0.575167,3.45787 -1.044679,6.93256 -1.66199,10.38318 0,0 3.430907,-1.67852 3.430907,-1.67852 v 0 c 0.508854,-3.42392 0.926083,-6.86087 1.441386,-10.28405 1.413957,-10.45632 2.83364,-20.91196 4.1061347,-31.38671 1.044363,-8.185522 2.238391,-16.358517 2.786827,-24.597949 0,0 -3.5126527,1.789787 -3.5126527,1.789787 z" />
    <path
       style="fill:#000000;fill-opacity:1;fill-rule:nonzero;stroke:none;stroke-width:0.264583"
       id="path108"
       d="m 11.976827,9.062149 c 1.857407,4.677357 3.599709,9.42136 4.925856,14.28043 0.283327,1.03812 0.52796,2.08641 0.791941,3.12961 0.899324,4.09917 1.701638,8.22382 2.296133,12.37904 0.251135,1.26716 0.152609,2.56978 0.30915,3.84297 0.157477,0.84778 0.172511,1.71309 0.307438,2.56255 0.163745,1.33887 0.377986,2.67074 0.537609,4.01031 0,0 3.483081,-1.82985 3.483081,-1.82985 v 0 c -0.176935,-1.34205 -0.38775,-2.67947 -0.524372,-4.0266 -0.113732,-0.84879 -0.154226,-1.70709 -0.298821,-2.55278 -0.133358,-1.27198 -0.126669,-2.5608 -0.388593,-3.81998 -0.711184,-4.12656 -1.562648,-8.23041 -2.49645,-12.31177 -0.26888,-1.0456 -0.518657,-2.09629 -0.806643,-3.13679 -1.350031,-4.87771 -3.149359,-9.617967 -4.727824,-14.423157 0,0 -3.408505,1.896017 -3.408505,1.896017 z" />
    <path
       style="fill:#000000;fill-opacity:1;fill-rule:nonzero;stroke:none;stroke-width:0.264583"
       id="path110"
       d="m 25.353316,47.905649 c 4.144164,-8.53322 8.171741,-17.12071 12.356065,-25.63488 2.757083,-5.434569 5.188911,-11.025889 7.940445,-16.462466 0,0 -3.456863,1.567786 -3.456863,1.567786 v 0 c -2.551004,5.416648 -4.897284,10.928427 -7.563847,16.29121 -4.2226,8.63565 -8.335788,17.33047 -12.811766,25.83813 0,0 3.535966,-1.59978 3.535966,-1.59978 z" />
    <path
       style="fill:#000000;fill-opacity:1;fill-rule:nonzero;stroke:none;stroke-width:0.264583"
       id="path112"
       d="m 43.664644,6.988258 c 0.523706,8.512008 0.668227,17.040141 0.789467,25.565411 0.190283,9.24948 0.301257,18.5002 0.34082,27.75148 -0.009,2.02796 -0.08978,4.05411 -0.183253,6.0795 0,0 3.42886,-1.73326 3.42886,-1.73326 v 0 c 0.03582,-2.00633 0.06439,-4.013 0.02831,-6.01967 -0.196842,-9.20971 -0.446884,-18.41841 -0.580239,-27.62939 -0.110752,-8.59906 -0.264788,-17.19873 -0.323163,-25.797821 0,0 -3.500805,1.78375 -3.500805,1.78375 z" />
    <path
       style="fill:#000000;fill-opacity:1;fill-rule:nonzero;stroke:none;stroke-width:0.264583"
       id="path114"
       d="m 51.356418,34.522099 c 2.279737,-3.90333 5.179822,-7.38704 8.12593,-10.79659 2.007545,-2.18618 4.391121,-3.9388 6.89577,-5.506515 0.268597,-0.168121 -1.073441,0.641171 -0.766562,0.562206 0.849334,-0.218546 1.612808,-0.691796 2.436831,-0.991992 0.73873,-0.269126 1.498534,-0.476438 2.247802,-0.714656 2.185157,-0.526721 4.433859,-0.9223 6.690242,-0.927028 0.92296,-0.0019 1.4066,0.07872 2.30166,0.182562 0.28375,0.059 0.5675,0.11801 0.85124,0.177015 0,0 3.20967,-2.230356 3.20967,-2.230356 v 0 c -0.29623,-0.06481 -0.59246,-0.129619 -0.88869,-0.194432 -0.8002,-0.09777 -1.55122,-0.210256 -2.3622,-0.21722 -2.30203,-0.01976 -4.597,0.413322 -6.832098,0.910543 -1.42408,0.441624 -3.433405,1.004419 -4.755563,1.675145 -4.5697,2.318192 -8.924604,4.937448 -12.431704,8.714488 -2.99076,3.49005 -5.942817,7.0491 -8.330541,10.9893 0,0 3.608213,-1.63247 3.608213,-1.63247 z" />
    <path
       style="fill:#000000;fill-opacity:1;fill-rule:nonzero;stroke:none;stroke-width:0.264583"
       id="path116"
       d="m 47.707885,39.988409 c 2.113174,3.87562 4.287549,7.71099 6.833732,11.32106 0.796886,0.94513 1.248106,1.63104 2.313729,2.30126 1.232902,0.77543 3.244744,1.52137 4.561276,1.97978 2.507856,0.87324 3.918,1.22212 6.511933,1.94847 5.863976,1.56024 11.806686,2.79317 17.712316,4.18065 2.08357,0.49834 4.15834,1.02599 6.22062,1.60544 0,0 3.14994,-2.16307 3.14994,-2.16307 v 0 c -2.09706,-0.55278 -4.20618,-1.05197 -6.31547,-1.55622 -5.9203,-1.38647 -11.88356,-2.58965 -17.768915,-4.12155 -2.651355,-0.75683 -3.872164,-1.05546 -6.422199,-1.96799 -1.285357,-0.45996 -3.189264,-1.1893 -4.398653,-1.94289 -1.076958,-0.67106 -1.460802,-1.25591 -2.286043,-2.2011 -2.607228,-3.54008 -4.8172,-7.34253 -6.713143,-11.30969 0,0 -3.399123,1.92585 -3.399123,1.92585 z" />
    <path
       style="fill:#000000;fill-opacity:1;fill-rule:nonzero;stroke:none;stroke-width:0.264583"
       id="path118"
       d="m 95.299951,65.521219 c 0.81067,2.85079 1.33443,5.77767 1.8428,8.69488 0.31757,2.23886 0.34942,4.45888 -0.0967,6.68309 -0.15439,0.76971 -0.31675,1.54513 -0.59902,2.27767 -0.92673,2.40501 -1.55036,2.8507 -3.18547,4.92788 -2.59804,2.7894 -5.69215,5.12829 -9.04585,6.94443 -0.32257,0.17468 -0.71914,0.15495 -1.0651,0.27694 -8.158675,2.87667 -1.16072,0.75313 -9.555921,3.12864 -6.346986,1.547191 -12.861784,2.329881 -19.392106,2.405471 -3.936986,0.0456 -5.146923,-0.10068 -9.016933,-0.34448 -5.60428,-0.45706 -11.145137,-1.480271 -16.512321,-3.149811 0,0 -3.168017,2.16329 -3.168017,2.16329 v 0 c 5.478899,1.590381 11.106248,2.601511 16.796432,3.054461 3.85164,0.23809 5.158642,0.38591 9.072176,0.34737 6.550811,-0.0645 13.091089,-0.82175 19.462922,-2.35526 3.052048,-0.844841 6.659018,-1.706911 9.556598,-3.046791 4.44549,-2.05565 9.99224,-5.08923 13.80622,-8.42288 0.866,-0.75693 1.6217,-1.63148 2.43256,-2.44722 1.65886,-2.16482 2.27692,-2.61002 3.20334,-5.10279 0.277189,-0.74588 0.429729,-1.53432 0.578699,-2.31598 0.43222,-2.26798 0.39256,-4.52206 0.0774,-6.80241 -0.492779,-2.94072 -1.014539,-5.87916 -1.704109,-8.78112 0,0 -3.4876,1.86462 -3.4876,1.86462 z" />
    <circle
       id="path230"
       style="fill:#000000;stroke:#000000;stroke-width:0.264583"
       cx="48.658981"
       cy="136.96602"
       r="0.048009843" />
    <circle
       id="path232"
       style="fill:#000000;stroke:#000000;stroke-width:0.264583"
       cx="48.658981"
       cy="-136.96602"
       transform="scale(1,-1)"
       r="0.048009843" />
  </g>
</svg>
